<svg version="1.2" xmlns="http://www.w3.org/2000/svg" viewBox="0 0 136 277" width="136" height="277"><defs><linearGradient id="P" gradientUnits="userSpaceOnUse"/><linearGradient id="g1" x2="1" href="#P" gradientTransform="matrix(-91.598,41.635,-68.731,-151.209,71.76,167.716)"><stop stop-color="#ffd43b"/><stop offset="1" stop-color="#ffe873"/></linearGradient><linearGradient id="g2" x2="1" href="#P" gradientTransform="matrix(-86.472,122.344,-151.536,-107.105,264.437,146.352)"><stop stop-color="#5a9fd4"/><stop offset="1" stop-color="#306998"/></linearGradient></defs><style>.a{fill:url(#g1)}.b{fill:url(#g2)}</style><path fill-rule="evenodd" class="a" d="m33.8 271.3c-20.3-6.7-33.8-14-33.8-33.3v-166.6h29.6c18.3 0 33.9 15.1 33.9 33.3v66.6c0 22.2 19.3 41.6 42.2 41.6h29.7v25.1c0 19.3-14.6 28.5-33.8 33.3-26.8 6.7-46.9 6.9-67.8 0zm10.7-169c0-6.9-5.7-12.5-12.7-12.5-7.1 0-12.8 5.6-12.8 12.5 0 6.9 5.7 12.5 12.8 12.5 7 0 12.7-5.6 12.7-12.5z"/><path fill-rule="evenodd" class="b" d="m101.5 5.1c20.3 6.7 33.9 14 33.9 33.3v166.6h-29.7c-18.2 0-33.8-15.1-33.8-33.3v-66.6c0-22.2-19.3-41.6-42.3-41.6h-29.6v-25.1c0-19.4 14.5-28.5 33.8-33.3 26.8-6.7 46.9-6.9 67.7 0zm14.8 169c0-6.9-5.7-12.5-12.7-12.5-7 0-12.7 5.6-12.7 12.5 0 6.9 5.7 12.5 12.7 12.5 7 0 12.7-5.6 12.7-12.5z"/></svg>