<svg version="1.2" xmlns="http://www.w3.org/2000/svg" viewBox="0 0 1045 277" width="1045" height="277"><defs><linearGradient id="P" gradientUnits="userSpaceOnUse"/><linearGradient id="g1" x2="1" href="#P" gradientTransform="matrix(-91.598,41.635,-68.774,-151.303,71.76,167.716)"><stop stop-color="#ffd43b"/><stop offset="1" stop-color="#ffe873"/></linearGradient><linearGradient id="g2" x2="1" href="#P" gradientTransform="matrix(-86.472,122.344,-151.494,-107.076,264.437,146.352)"><stop stop-color="#5a9fd4"/><stop offset="1" stop-color="#306998"/></linearGradient></defs><style>.a{fill:url(#g1)}.b{fill:url(#g2)}.c{fill:#646464}</style><path fill-rule="evenodd" class="a" d="m33.8 271.3c-20.3-6.7-33.8-14-33.8-33.3v-166.6h29.6c18.3 0 33.9 15.1 33.9 33.3v66.6c0 22.2 19.3 41.6 42.2 41.6h29.7v25.1c0 19.3-14.6 28.5-33.8 33.3-26.8 6.7-46.9 6.9-67.8 0zm10.7-169c0-6.9-5.7-12.5-12.7-12.5-7.1 0-12.8 5.6-12.8 12.5 0 6.9 5.7 12.5 12.8 12.5 7 0 12.7-5.6 12.7-12.5z"/><path fill-rule="evenodd" class="b" d="m101.5 5.1c20.3 6.7 33.9 14 33.9 33.3v166.6h-29.7c-18.2 0-33.8-15.1-33.8-33.3v-66.6c0-22.2-19.3-41.6-42.3-41.6h-29.6v-25.1c0-19.4 14.5-28.5 33.8-33.3 26.8-6.7 46.9-6.9 67.7 0zm14.8 169c0-6.9-5.7-12.5-12.7-12.5-7 0-12.7 5.6-12.7 12.5 0 6.9 5.7 12.5 12.7 12.5 7 0 12.7-5.6 12.7-12.5z"/><path fill-rule="evenodd" class="c" d="m231.5 115c28 0.2 44.4 23 44.6 49.2 0 26.9-14.6 52.2-44.8 52.4-30-0.2-44.2-25.5-44.2-52.4 0-26.2 16.7-49 44.4-49.2zm-26.6 49.2c0 18.7 6 42.2 26.8 42.4 22.7-0.6 26.7-23.7 26.7-42.4 0-17.5-6.2-37-27.1-38.1-22.2 1.3-26.6 20.6-26.6 38.1zm110.5-49.2v67.9c0 14.8 10.9 23.3 25.1 23.1 8.6-0.3 16.6-4.3 21.9-7.8v-81.5h16.2v83.7c-13.5 9.8-29.3 16-48.3 16-14.7 0-31.6-8.7-31.6-28v-67.9zm128.1 12.2c-10.7 0-18 4-23.7 8.9v78.6h-16.3v-80.8c6-6.7 14-12 23.1-15.1 9.8-3.6 19.1-5.8 32.7-3.3-2 3.9-4.7 9.1-6.5 13-3.1-0.6-6.9-1.3-9.1-1.3zm71.9-12.2c28 0.2 44.4 23.1 44.6 49.3 0 26.8-14.6 52.1-44.8 52.4-30-0.3-44.2-25.6-44.2-52.4 0-26.2 16.7-49.1 44.4-49.3zm-26.6 49.3c0 18.6 6 42.1 26.8 42.4 22.7-0.7 26.7-23.8 26.7-42.4 0-17.6-6.2-37.1-27.1-38.2-22.2 1.3-26.6 20.6-26.6 38.2zm140.2 52.1c-32.6-1.1-45-17.1-45-16.8v-134.3l15.7-5.3v63.7c9.1-5.6 18.5-8.9 29.3-8.7 26.7 0.9 39.1 24.2 39.1 48.8-0.2 28.2-14 53.5-39.1 52.9zm-29.3-83l0.3 64.1c2 2.4 13.1 8.6 26.6 8 18.9-0.9 23.5-25.1 23.5-41.1 0-16.4-3.1-37-24.4-38.4-10-0.6-20.6 4.2-26 7.4zm131.7-18.5c27.9 0.3 44.3 23.1 44.6 49.3 0 26.9-14.7 52.2-44.9 52.4-29.9-0.2-44.1-25.5-44.1-52.4 0-26.2 16.6-49 44.4-49.3zm-26.7 49.3c0 18.6 6 42.2 26.9 42.4 22.6-0.7 26.6-23.8 26.6-42.4 0-17.5-6.2-37.1-27.1-38.2-22.2 1.4-26.6 20.7-26.6 38.2zm135.4-37.1c-10.7 0-18 4-23.8 8.9v78.6h-16.2v-80.8c6-6.7 14-12 23.1-15.1 9.8-3.5 19.1-5.8 32.6-3.3-2 4-4.6 9.1-6.4 13.1-3.1-0.7-6.9-1.4-9.1-1.4zm71.9-12.2c28 0.3 44.4 23.1 44.6 49.3 0 26.9-14.6 52.2-44.8 52.4-30-0.2-44.2-25.5-44.2-52.4 0-26.2 16.7-49 44.4-49.3zm-26.6 49.3c0 18.6 6 42.2 26.8 42.4 22.7-0.7 26.7-23.8 26.7-42.4 0-17.5-6.3-37.1-27.1-38.2-22.2 1.4-26.6 20.7-26.6 38.2zm89.2 42.2l5.7-9.4c6.7 5.2 16.5 8.5 25.1 8.7 10.7 0 23.3-4.9 22.9-17.1-0.2-9.5-8.9-12.4-16.2-15.3-2.9-1.1-6-2.4-9.1-3.3-6-2.2-12.2-4.5-17.3-8.5-5.4-3.7-9.4-9.3-9.4-18.4 0-18.6 16.7-28.8 34-28.8 10 0 19.3 3.3 28.2 8.2l-6 9.5c-7.3-4.2-14.2-6.2-21.3-6.4-9.3 0-19.5 4.9-19.8 15.3 0 5.5 3.4 8.7 8.5 10.9 4.9 2.2 11.5 4.9 17.7 7.3 6 2.4 12.2 4.7 17.3 8.7 5.4 4.2 9.4 9.9 9.4 18.8-0.3 20.9-20 30.6-38.7 30.6-11.3 0-22.6-4.4-31-10.8z"/></svg>